<svg xmlns="http://www.w3.org/2000/svg" viewBox="0 0 317382 333334" shape-rendering="geometricPrecision" text-rendering="geometricPrecision" image-rendering="optimizeQuality" fill-rule="evenodd" clip-rule="evenodd"><path d="M257154 41674c-3199-910-5055-4242-4144-7441 910-3199 4242-5055 7441-4144 8536 2448 15719 6472 21212 12459 5513 6009 9195 13839 10679 23847 481 3290-1796 6348-5087 6829-3290 481-6348-1796-6829-5086-1111-7492-3734-13209-7618-17442-3905-4256-9217-7175-15655-9021zM102728 182198L1657 76189c-2289-2406-2194-6212 211-8501 1164-1107 2656-1657 4144-1656v-16h39405L6156 26754c-2354-2354-2354-6170 0-8524s6170-2354 8524 0l47786 47786h114472c1240-17572 8797-33388 20390-45130C210067 7982 227655 0 247069 0c19415 0 37003 7982 49742 20886 12710 12874 20571 30645 20571 50259s-7861 37385-20571 50259c-12739 12904-30326 20886-49742 20886-8647 0-16954-1595-24647-4511-6334-2401-12240-5706-17566-9760l-52939 54219v104104l40530 36489c2471 2224 2671 6030 448 8501-1188 1320-2828 1991-4474 1992v10H67188c-3330 0-6029-2699-6029-6029 0-1890 870-3576 2231-4682l39339-36236V182198zm86302-116182h62079c3330 0 6028 2699 6028 6028 0 1800-789 3416-2041 4521l-41770 42780c4080 2942 8557 5367 13335 7178 6327 2398 13204 3710 20408 3710 16088 0 30644-6596 41171-17259 10556-10693 17085-25481 17085-41829s-6530-31136-17086-41830c-10527-10663-25082-17259-41170-17259s-30644 6596-41170 17259c-9441 9563-15659 22401-16869 36700zM20068 78073l18492 19395c391-80 797-122 1211-122h175704c755 0 1477 139 2144 393l19202-19667H20068zm29871 31331l62868 65939c1215 1103 1977 2695 1977 4465v109206h-13c0 1624-653 3241-1942 4427l-30219 27836h90117l-30626-27572c-1367-1105-2242-2795-2242-4691V179808h17c0-1511 566-3023 1702-4191l64650-66213H49937z" fill-rule="nonzero"/></svg>